<?xml version="1.0" encoding="UTF-8"?>
<svg width="135px" height="50px" viewBox="0 0 135 50" version="1.1" xmlns="http://www.w3.org/2000/svg" xmlns:xlink="http://www.w3.org/1999/xlink">
    <g id="Page-1" stroke="none" stroke-width="1" fill="none" fill-rule="evenodd">
        <g id="brand">
            <path 
d="M6.35,30.67A1.71,1.71,0,0,0,8.07,29a1.74,1.74,0,0,0-1.73-1.72A1.76,1.76,0,0,0,4.62,29,1.73,1.73,0,0,0,6.35,30.67Z" 
fill="#fb6a00"/>
<path 
d="M41.19,34a1.78,1.78,0,0,0-1.69-1.78,1.74,1.74,0,0,0-1.77,1.68,1.69,1.69,0,0,0,1.68,1.75A1.72,1.72,0,0,0,41.19,34Z" 
fill="#fb6a00"/><path 
d="M40,18.87a1.69,1.69,0,0,0,1.71,1.71,1.71,1.71,0,1,0,0-3.42A1.71,1.71,0,0,0,40,18.87Z" 
fill="#fb6a00"/><path 
d="M31.57,39a1.69,1.69,0,0,0-1.72,1.71,1.71,1.71,0,0,0,1.72,1.71,1.75,1.75,0,0,0,1.73-1.72A1.7,1.7,0,0,0,31.57,39Z" 
fill="#fb6a00"/><path 
d="M12.24,11.74A1.71,1.71,0,0,0,13.93,10a1.74,1.74,0,0,0-1.75-1.7,1.72,1.72,0,0,0-1.69,1.75A1.7,1.7,0,0,0,12.24,11.74Z" 
fill="#fb6a00"/><path 
d="M25.23,6A1.74,1.74,0,0,0,27,7.68a1.71,1.71,0,0,0,1.68-1.75,1.69,1.69,0,0,0-1.77-1.66A1.74,1.74,0,0,0,25.23,6Z" 
fill="#fb6a00"/><path 
d="M39.46,15.83a1.69,1.69,0,0,0,1.76-1.67,1.73,1.73,0,1,0-3.45-.06A1.67,1.67,0,0,0,39.46,15.83Z" 
fill="#fb6a00"/><path 
d="M7,13.93a1.71,1.71,0,0,0,1.72,1.71,1.68,1.68,0,0,0,1.69-1.73,1.66,1.66,0,0,0-1.7-1.7A1.69,1.69,0,0,0,7,13.93Z" 
fill="#fb6a00"/><path 
d="M7.37,23.78a1.71,1.71,0,0,0-1.72-1.72,1.72,1.72,0,1,0,0,3.44A1.69,1.69,0,0,0,7.37,23.78Z" 
fill="#fb6a00"/><path 
d="M36,36.14a1.75,1.75,0,0,0-1.71,1.74,1.73,1.73,0,0,0,3.46,0A1.76,1.76,0,0,0,36,36.14Z" 
fill="#fb6a00"/><path 
d="M23,42.09a1.74,1.74,0,0,0-1.7-1.75A1.72,1.72,0,1,0,23,42.09Z" 
fill="#fb6a00"/><path 
d="M11.9,36a1.71,1.71,0,0,0-1.73,1.7,1.68,1.68,0,0,0,1.68,1.73,1.74,1.74,0,0,0,1.76-1.68A1.78,1.78,0,0,0,11.9,36Z" 
fill="#fb6a00"/><path 
d="M36.09,11.9a1.71,1.71,0,0,0,1.68-1.75A1.74,1.74,0,0,0,36,8.46a1.76,1.76,0,0,0-1.69,1.77A1.72,1.72,0,0,0,36.09,11.9Z" 
fill="#fb6a00"/><path 
d="M29.9,7.36A1.78,1.78,0,0,0,31.62,9.1a1.74,1.74,0,0,0,1.74-1.7,1.68,1.68,0,0,0-1.7-1.72A1.72,1.72,0,0,0,29.9,7.36Z" 
fill="#fb6a00"/><path 
d="M16.63,9a1.76,1.76,0,0,0,1.76-1.69,1.73,1.73,0,0,0-3.45-.07A1.76,1.76,0,0,0,16.63,9Z" 
fill="#fb6a00"/><path 
d="M6.45,20.35a1.72,1.72,0,1,0,0-3.43,1.68,1.68,0,0,0-1.73,1.69A1.71,1.71,0,0,0,6.45,20.35Z" 
fill="#fb6a00"/><path 
d="M26.5,40.4a1.7,1.7,0,1,0,1.74,1.67A1.66,1.66,0,0,0,26.5,40.4Z" 
fill="#fb6a00"/><path 
d="M18,40.6a1.71,1.71,0,0,0-1.66-1.77,1.77,1.77,0,0,0-1.79,1.67,1.74,1.74,0,0,0,1.68,1.75A1.67,1.67,0,0,0,18,40.6Z" 
fill="#fb6a00"/><path 
d="M8.53,32a1.73,1.73,0,0,0-1.78,1.66,1.73,1.73,0,0,0,3.46.09A1.72,1.72,0,0,0,8.53,32Z" 
fill="#fb6a00"/><path 
d="M41.62,27.49a1.71,1.71,0,0,0-1.69,1.74,1.69,1.69,0,0,0,1.75,1.67,1.65,1.65,0,0,0,1.68-1.73A1.68,1.68,0,0,0,41.62,27.49Z" 
fill="#fb6a00"/><path 
d="M42.41,22.31A1.73,1.73,0,0,0,40.7,24a1.71,1.71,0,1,0,3.42,0A1.71,1.71,0,0,0,42.41,22.31Z" 
fill="#fb6a00"/><path 
d="M21.71,7.57a1.62,1.62,0,0,0,1.71-1.69,1.65,1.65,0,0,0-1.73-1.69A1.67,1.67,0,0,0,20,5.93,1.65,1.65,0,0,0,21.71,7.57Z" 
fill="#fb6a00"/><path 
d="M36.19,33.05a1.34,1.34,0,1,0-2.67.1,1.34,1.34,0,0,0,2.67-.1Z" 
fill="#fb6a00"/><path 
d="M11.14,19.53a1.34,1.34,0,0,0,1.32-1.35,1.33,1.33,0,0,0-2.66,0A1.35,1.35,0,0,0,11.14,19.53Z" 
fill="#fb6a00"/><path 
d="M34.59,15.93a1.33,1.33,0,1,0-1.34-1.33A1.33,1.33,0,0,0,34.59,15.93Z" 
fill="#fb6a00"/><path 
d="M30.51,35.76a1.32,1.32,0,0,0,2.64,0,1.32,1.32,0,1,0-2.64,0Z" 
fill="#fb6a00"/><path 
d="M36.69,21.8A1.33,1.33,0,1,0,38,20.47,1.33,1.33,0,0,0,36.69,21.8Z" 
fill="#fb6a00"/><path 
d="M32.81,12a1.35,1.35,0,0,0-1.35-1.32,1.33,1.33,0,0,0-1.3,1.36,1.31,1.31,0,0,0,1.3,1.28A1.36,1.36,0,0,0,32.81,12Z" 
fill="#fb6a00"/><path 
d="M36.84,16.62a1.39,1.39,0,0,0-1.36,1.25,1.35,1.35,0,0,0,1.28,1.39A1.32,1.32,0,0,0,38.15,18,1.38,1.38,0,0,0,36.84,16.62Z" 
fill="#fb6a00"/><path 
d="M20,9.19a1.34,1.34,0,0,0-1.33,1.26A1.33,1.33,0,1,0,20,9.19Z" 
fill="#fb6a00"/><path 
d="M13.37,32a1.31,1.31,0,1,0,0,2.62,1.31,1.31,0,1,0,0-2.62Z" 
fill="#fb6a00"/><path 
d="M8.7,22a1.31,1.31,0,1,0,2.61.11A1.27,1.27,0,0,0,10,20.75,1.3,1.3,0,0,0,8.7,22Z" 
fill="#fb6a00"/><path 
d="M24.14,39.39a1.31,1.31,0,0,0,1.36-1.3,1.34,1.34,0,0,0-1.33-1.34,1.37,1.37,0,0,0-1.33,1.35A1.33,1.33,0,0,0,24.14,39.39Z" 
fill="#fb6a00"/><path 
d="M21.5,37.55a1.34,1.34,0,0,0-1.35-1.32,1.33,1.33,0,0,0,0,2.65A1.37,1.37,0,0,0,21.5,37.55Z" 
fill="#fb6a00"/><path 
d="M12,14.83a1.31,1.31,0,1,0,1.34-1.32A1.29,1.29,0,0,0,12,14.83Z" 
fill="#fb6a00"/><path 
d="M16.35,10.85a1.33,1.33,0,1,0,0,2.65,1.3,1.3,0,0,0,1.26-1.31A1.29,1.29,0,0,0,16.35,10.85Z" 
fill="#fb6a00"/><path 
d="M26.44,10.38a1.32,1.32,0,1,0,2.64,0,1.32,1.32,0,0,0-2.64,0Z" 
fill="#fb6a00"/><path 
d="M24,8.61a1.32,1.32,0,0,0,0,2.64,1.34,1.34,0,0,0,1.3-1.3A1.31,1.31,0,0,0,24,8.61Z" 
fill="#fb6a00"/><path 
d="M16.48,37.24a1.34,1.34,0,0,0,1.31-1.36,1.31,1.31,0,0,0-1.29-1.29,1.29,1.29,0,0,0-1.33,1.31A1.33,1.33,0,0,0,16.48,37.24Z" 
fill="#fb6a00"/><path 
d="M28.2,38.79a1.34,1.34,0,0,0,1.3-1.36,1.33,1.33,0,1,0-1.3,1.36Z" 
fill="#fb6a00"/><path 
d="M39.4,25.8a1.32,1.32,0,0,0-1.28-1.31A1.31,1.31,0,1,0,39.4,25.8Z" 
fill="#fb6a00"/><path 
d="M37.06,31a1.32,1.32,0,0,0,1.26-1.33,1.29,1.29,0,0,0-1.4-1.27,1.3,1.3,0,1,0,.14,2.6Z" 
fill="#fb6a00"/><path 
d="M11.2,31.26a1.33,1.33,0,0,0,0-2.66,1.33,1.33,0,1,0,0,2.66Z" 
fill="#fb6a00"/><path 
d="M10.06,27.39a1.31,1.31,0,1,0-1.35-1.32A1.31,1.31,0,0,0,10.06,27.39Z" 
fill="#fb6a00"/><path 
d="M36,42.39a1.13,1.13,0,0,0,0,2.25,1.12,1.12,0,0,0,1.13-1.16A1.1,1.1,0,0,0,36,42.39Z" 
fill="#fb6a00"/><path 
d="M17,44.67a1.14,1.14,0,0,0-1.14,1.15,1.14,1.14,0,0,0,2.28,0A1.16,1.16,0,0,0,17,44.67Z" 
fill="#fb6a00"/><path 
d="M36.78,6.05A1.08,1.08,0,0,0,37.89,5a1.15,1.15,0,0,0-1.11-1.18,1.18,1.18,0,0,0-1.16,1.14A1.12,1.12,0,0,0,36.78,6.05Z" 
fill="#fb6a00"/><path 
d="M41.62,10.41a1.15,1.15,0,0,0,1.2-1.09,1.16,1.16,0,0,0-2.31,0A1.15,1.15,0,0,0,41.62,10.41Z" 
fill="#fb6a00"/><path 
d="M1.35,21.23a1.12,1.12,0,0,0,1.13-1.15A1.15,1.15,0,0,0,1.37,19,1.14,1.14,0,0,0,.21,20.1,1.09,1.09,0,0,0,1.35,21.23Z" 
fill="#fb6a00"/><path 
d="M2.31,26.66a1.14,1.14,0,0,0-1.16-1.14A1.13,1.13,0,0,0,0,26.67a1.17,1.17,0,0,0,1.12,1.1A1.17,1.17,0,0,0,2.31,26.66Z" 
fill="#fb6a00"/><path 
d="M30.8,3.27a1.13,1.13,0,1,0,0-2.25A1.07,1.07,0,0,0,29.7,2.17,1.11,1.11,0,0,0,30.8,3.27Z" 
fill="#fb6a00"/><path 
d="M30,45a1.15,1.15,0,0,0-1.13,1.08A1.13,1.13,0,0,0,30,47.23a1.15,1.15,0,0,0,1.18-1.11A1.18,1.18,0,0,0,30,45Z" 
fill="#fb6a00"/><path 
d="M18.25,3a1.13,1.13,0,0,0,1.13-1.15,1.1,1.1,0,0,0-1.1-1.1,1.14,1.14,0,0,0-1.18,1.1A1.17,1.17,0,0,0,18.25,3Z" 
fill="#fb6a00"/><path 
d="M2.91,31.84a1.11,1.11,0,0,0-1.2,1.07A1.13,1.13,0,1,0,4,33,1.12,1.12,0,0,0,2.91,31.84Z" 
fill="#fb6a00"/><path 
d="M6.26,37.42a1.13,1.13,0,0,0-1.15,1,1.16,1.16,0,0,0,1.08,1.21,1.14,1.14,0,0,0,1.19-1.1A1.12,1.12,0,0,0,6.26,37.42Z" 
fill="#fb6a00"/><path 
d="M44.83,32.78a1.16,1.16,0,0,0-1.19,1.11A1.13,1.13,0,0,0,44.78,35,1.12,1.12,0,0,0,45.92,34,1.14,1.14,0,0,0,44.83,32.78Z" 
fill="#fb6a00"/><path 
d="M23.46,45.74a1.17,1.17,0,0,0-1.09,1.13A1.11,1.11,0,0,0,23.52,48a1.13,1.13,0,0,0,1.13-1.15A1.2,1.2,0,0,0,23.46,45.74Z" 
fill="#fb6a00"/><path 
d="M3.4,15a1.14,1.14,0,0,0,1.1-1.19,1.12,1.12,0,0,0-1.2-1.07,1.1,1.1,0,0,0-1.06,1.14A1.13,1.13,0,0,0,3.4,15Z" 
fill="#fb6a00"/><path 
d="M11.1,41.82A1.14,1.14,0,0,0,10,43a1.13,1.13,0,0,0,1.18,1.1A1.08,1.08,0,0,0,12.22,43,1.1,1.1,0,0,0,11.1,41.82Z" 
fill="#fb6a00"/><path 
d="M24.73,2.26a1.13,1.13,0,0,0,1.19-1.09,1.14,1.14,0,0,0-2.27-.11A1.13,1.13,0,0,0,24.73,2.26Z" 
fill="#fb6a00"/><path 
d="M45.13,16a1.12,1.12,0,0,0,1.14-1.06,1.15,1.15,0,0,0-1.1-1.19A1.16,1.16,0,0,0,44,14.82,1.13,1.13,0,0,0,45.13,16Z" 
fill="#fb6a00"/><path 
d="M46.89,20a1.13,1.13,0,1,0,0,2.26A1.13,1.13,0,0,0,48,21.09,1.14,1.14,0,0,0,46.89,20Z" 
fill="#fb6a00"/><path 
d="M7,9.63a1.15,1.15,0,0,0,1.27-1,1.13,1.13,0,0,0-1-1.23A1.11,1.11,0,0,0,6,8.36,1.13,1.13,0,0,0,7,9.63Z" 
fill="#fb6a00"/><path 
d="M41.12,38.2A1.15,1.15,0,0,0,40,39.35a1.13,1.13,0,0,0,1.17,1.11,1.14,1.14,0,0,0,1.1-1.11A1.16,1.16,0,0,0,41.12,38.2Z" 
fill="#fb6a00"/><path 
d="M12.21,5.52a1.19,1.19,0,0,0,1.12-1.17,1.11,1.11,0,0,0-1.19-1.08,1.06,1.06,0,0,0-1.06,1.11A1.11,1.11,0,0,0,12.21,5.52Z" 
fill="#fb6a00"/><path 
d="M46.81,26.56a1.14,1.14,0,0,0-1.2,1.09,1.2,1.2,0,0,0,1.13,1.17,1.14,1.14,0,0,0,1.14-1.15A1.08,1.08,0,0,0,46.81,26.56Z" 
fill="#fb6a00"/><path 
d="M112.57,13.55h0l-.15,0c-1.23,0-2.47,0-3.7,0-.42,0-.58.14-.58.57a2.71,2.71,0,0,1-.11,1.28l-.49-.41a8,8,0,0,0-10-.31c-4.21,3.13-5,10-1.64,14.16s8.61,4.27,11.82,1.28c.1-.09.21-.23.39-.11l.07,1.34v.15c.18.27.46.15.69.15,1,0,2,0,3,0,.69,0,.82-.23.82-.86,0-5.5,0-11,0-16.5C112.7,14,112.8,13.75,112.57,13.55ZM101.84,27.67A5,5,0,0,1,98.43,23a5,5,0,0,1,2.51-5.16,5,5,0,0,1,7.42,4.23C108.35,26.29,105.36,28.66,101.84,27.67Z" 
fill="#2c394c"/><path 
d="M14.3,27.59a.93.93,0,1,0,0-1.86.86.86,0,0,0-.9.9A.88.88,0,0,0,14.3,27.59Z" 
fill="#fb6a00"/><path 
d="M30.54,30.67a.89.89,0,0,0-.94.88.9.9,0,0,0,.91,1,.87.87,0,0,0,1-.9C31.49,31,31.1,30.73,30.54,30.67Z" 
fill="#fb6a00"/><path 
d="M15.71,19.39a.91.91,0,0,0,.92-.85.93.93,0,0,0-.94-1,.89.89,0,0,0-.92.9A.92.92,0,0,0,15.71,19.39Z" 
fill="#fb6a00"/><path 
d="M26.27,33.88a.93.93,0,1,0-1.85,0,.89.89,0,0,0,.89.93A.91.91,0,0,0,26.27,33.88Z" 
fill="#fb6a00"/><path 
d="M15.51,28.35a.86.86,0,0,0-.92.88.89.89,0,0,0,.93.95.87.87,0,0,0,.92-.81A.91.91,0,0,0,15.51,28.35Z" 
fill="#fb6a00"/><path 
d="M21.88,14.07a.94.94,0,0,0,.94,1,.92.92,0,0,0,.93-.89.94.94,0,0,0-.86-1A1,1,0,0,0,21.88,14.07Z" 
fill="#fb6a00"/><path 
d="M28.09,32.19a.89.89,0,0,0-.92.9,1,1,0,0,0,.95,1,.89.89,0,0,0,.9-.86A.92.92,0,0,0,28.09,32.19Z" 
fill="#fb6a00"/><path 
d="M28.31,14a.94.94,0,0,0-1,1,.92.92,0,1,0,1.83-.07A.88.88,0,0,0,28.31,14Z" 
fill="#fb6a00"/><path 
d="M19.73,34a.94.94,0,0,0,.94-1,.87.87,0,0,0-.91-.83.9.9,0,0,0-.93.95A.87.87,0,0,0,19.73,34Z" 
fill="#fb6a00"/><path 
d="M32.47,19.57a.92.92,0,0,0,.14-1.83,1,1,0,0,0-1.05.93A.88.88,0,0,0,32.47,19.57Z" 
fill="#fb6a00"/><path 
d="M13.08,23.84a.94.94,0,0,0,1,.92.89.89,0,0,0,.87-.85.94.94,0,0,0-1-1A.89.89,0,0,0,13.08,23.84Z" 
fill="#fb6a00"/><path 
d="M32.75,21.27a.89.89,0,0,0,.85.9.94.94,0,0,0,1-.94.94.94,0,0,0-1.87,0Z" 
fill="#fb6a00"/><path 
d="M16.7,16.33a.87.87,0,0,0,.87.93.92.92,0,1,0,.11-1.84A.92.92,0,0,0,16.7,16.33Z" 
fill="#fb6a00"/><path 
d="M30.51,15.6a.82.82,0,0,0-.79.9.9.9,0,0,0,1,.92.88.88,0,0,0,.89-.92C31.56,15.94,31.17,15.58,30.51,15.6Z" 
fill="#fb6a00"/><path 
d="M17.34,30.52a.87.87,0,0,0-.9.84.92.92,0,0,0,.87,1,1,1,0,0,0,1-.91A.92.92,0,0,0,17.34,30.52Z" 
fill="#fb6a00"/><path 
d="M35,24.1a.94.94,0,1,0-1.88,0,.93.93,0,0,0,1,.88A.88.88,0,0,0,35,24.1Z" 
fill="#fb6a00"/><path 
d="M33.61,27.8a.91.91,0,1,0,0-1.82.83.83,0,0,0-.87.91A.85.85,0,0,0,33.61,27.8Z" 
fill="#fb6a00"/><path 
d="M21,14.85a.86.86,0,0,0-.89-.9A.91.91,0,1,0,20,15.77.88.88,0,0,0,21,14.85Z" 
fill="#fb6a00"/><path 
d="M15.38,21a.88.88,0,0,0-1-.9.85.85,0,0,0-.85,1,.88.88,0,0,0,.94.88A.9.9,0,0,0,15.38,21Z" 
fill="#fb6a00"/><path 
d="M32.4,28.54a.87.87,0,0,0-.89.91.93.93,0,0,0,1.85.09A1,1,0,0,0,32.4,28.54Z" 
fill="#fb6a00"/><path 
d="M25.69,15.08a.83.83,0,0,0,.9-.8.92.92,0,0,0-.92-1,.92.92,0,1,0,0,1.84Z" 
fill="#fb6a00"/><path 
d="M22.47,34.77a.88.88,0,0,0,.93-.87.92.92,0,0,0-1-1,.87.87,0,0,0-.87.87A.89.89,0,0,0,22.47,34.77Z" 
fill="#fb6a00"/><path 
d="M19.36,28.32a.57.57,0,0,0-.61-.61.6.6,0,0,0-.63.68.64.64,0,0,0,.67.59A.61.61,0,0,0,19.36,28.32Z" 
fill="#fb6a00"/><path 
d="M30.84,24.46a.59.59,0,0,0-.66.64.56.56,0,0,0,.62.6c.37,0,.58-.23.65-.62A.64.64,0,0,0,30.84,24.46Z" 
fill="#fb6a00"/><path 
d="M17.74,27.3c.38,0,.58-.25.63-.63a.6.6,0,0,0-.61-.62.58.58,0,0,0-.65.58A.57.57,0,0,0,17.74,27.3Z" 
fill="#fb6a00"/><path 
d="M28.67,19.57a.57.57,0,0,0,.6.68.6.6,0,0,0,.62-.61.59.59,0,0,0-.58-.64A.56.56,0,0,0,28.67,19.57Z" 
fill="#fb6a00"/><path 
d="M24.87,17.21a.63.63,0,1,0-1.25,0c0,.37.25.57.66.61A.63.63,0,0,0,24.87,17.21Z" 
fill="#fb6a00"/><path 
d="M26.79,17.52a.62.62,0,0,0-1.24,0,.57.57,0,0,0,.58.63A.58.58,0,0,0,26.79,17.52Z" 
fill="#fb6a00"/><path 
d="M30.32,20.64a.58.58,0,0,0-.62.62.6.6,0,0,0,.6.65.62.62,0,0,0,.62-.63A.58.58,0,0,0,30.32,20.64Z" 
fill="#fb6a00"/><path 
d="M30.84,22.53a.6.6,0,0,0-.63.61.56.56,0,0,0,.6.61.58.58,0,0,0,.66-.63A.6.6,0,0,0,30.84,22.53Z" 
fill="#fb6a00"/><path 
d="M17.92,20.4a.55.55,0,0,0-.65.56.57.57,0,0,0,.62.66.61.61,0,0,0,.63-.59A.59.59,0,0,0,17.92,20.4Z" 
fill="#fb6a00"/><path 
d="M17.29,23.47a.57.57,0,0,0,.6-.63.62.62,0,0,0-1.24,0A.57.57,0,0,0,17.29,23.47Z" 
fill="#fb6a00"/><path 
d="M27.79,17.71a.61.61,0,0,0-.6.63.58.58,0,0,0,.63.6.57.57,0,0,0,.61-.62C28.42,17.94,28.18,17.75,27.79,17.71Z" 
fill="#fb6a00"/><path 
d="M26.45,30.53a.59.59,0,0,0-.64-.57c-.37.06-.62.24-.61.62a.63.63,0,1,0,1.25,0Z" 
fill="#fb6a00"/><path 
d="M17.2,25.41a.6.6,0,0,0,.65-.58.59.59,0,0,0-.6-.63.56.56,0,0,0-.65.57A.58.58,0,0,0,17.2,25.41Z" 
fill="#fb6a00"/><path 
d="M22,31.11a.61.61,0,0,0,.64-.61.6.6,0,0,0-.65-.6.57.57,0,0,0-.62.61A.58.58,0,0,0,22,31.11Z" 
fill="#fb6a00"/><path 
d="M23.27,30.83a.57.57,0,0,0,.63.6.62.62,0,1,0,0-1.23A.57.57,0,0,0,23.27,30.83Z" 
fill="#fb6a00"/><path 
d="M21.7,17.43a.57.57,0,0,0,.61.61.58.58,0,0,0,.6-.62.55.55,0,0,0-.61-.6A.54.54,0,0,0,21.7,17.43Z" 
fill="#fb6a00"/><path 
d="M21.12,18.15a.59.59,0,0,0-.61-.58.56.56,0,0,0-.62.59.57.57,0,0,0,.6.62C20.88,18.8,21.06,18.55,21.12,18.15Z" 
fill="#fb6a00"/><path 
d="M29.75,28.53a.58.58,0,0,0-.62-.57.61.61,0,1,0,0,1.21C29.52,29.18,29.71,28.94,29.75,28.53Z" 
fill="#fb6a00"/><path 
d="M30.22,27.58a.58.58,0,0,0,.59-.64.61.61,0,1,0-1.22,0A.59.59,0,0,0,30.22,27.58Z" 
fill="#fb6a00"/><path 
d="M20.18,30.25c.37,0,.63-.19.63-.59a.57.57,0,0,0-.6-.62.56.56,0,0,0-.63.59C19.57,30,19.81,30.21,20.18,30.25Z" 
fill="#fb6a00"/><path 
d="M27,29.78a.61.61,0,0,0,1.22,0,.59.59,0,0,0-.61-.62A.55.55,0,0,0,27,29.78Z" 
fill="#fb6a00"/><path 
d="M19.6,19.41A.59.59,0,0,0,19,18.8a.54.54,0,0,0-.6.54A.56.56,0,0,0,19,20,.59.59,0,0,0,19.6,19.41Z" 
fill="#fb6a00"/><path 
d="M91.16,13.48c-.75,0-1.51,0-2.27,0-1.5,0-1.5,0-1.56,1.46a2.6,2.6,0,0,1-.06.41l-.61-.48a8.26,8.26,0,0,0-9.77-.44c-4.64,3.16-4.7,10.39-1.78,14,3.3,4,9.2,4,11.9,1.26a.2.2,0,0,1,.27-.06c.17,2-.32,3.2-1.55,4.06-1.44,1-5.59,1.24-7.27-.43a1,1,0,0,0-.73-.32c-1.36,0-2.72,0-4.08,0-.51,0-.53.17-.37.57a7.69,7.69,0,0,0,3.26,3.83A12.05,12.05,0,0,0,84,38.61c4.14-.39,7.19-2.55,7.74-7.22a53.42,53.42,0,0,0,.14-5.93c0-3.74,0-7.47,0-11.2C91.91,13.69,91.78,13.44,91.16,13.48Zm-8.53,14a4.94,4.94,0,0,1-5-5.18,5,5,0,1,1,9.93,0A4.81,4.81,0,0,1,82.63,27.48Z" 
fill="#2c394c"/><path 
d="M133.51,19.31A8.28,8.28,0,0,0,121.66,14a16.92,16.92,0,0,0-2,1.41c0-.49,0-.81,0-1.13.07-.57-.13-.8-.75-.78a26.21,26.21,0,0,1-2.94,0c-.72,0-.88.22-.88.9,0,5.78,0,11.57,0,17.36,0,1.9,0,3.81,0,5.71,0,.55.1.82.74.79,1,0,2,0,3,0,.62,0,.83-.15.82-.79,0-2.25,0-4.51,0-6.76,0-.26,0-.52,0-.87.24.17.39.26.52.37a8,8,0,0,0,11.1-.78C134.07,26.46,134.51,23,133.51,19.31Zm-4.63,5.76a4.91,4.91,0,0,1-5.94,2.61c-2.11-.58-3.47-2.64-3.46-5.66a4.68,4.68,0,0,1,2.68-4.26,4.81,4.81,0,0,1,5.08.3A5.68,5.68,0,0,1,128.88,25.07Z" 
fill="#2c394c"/><path 
d="M70.8,23.76a.39.39,0,0,0,0-.18h0s0,0,0,0h0a10.57,10.57,0,0,0-.68-4.73C68.68,15.05,65.35,13,61,13.05a8.63,8.63,0,0,0-8.24,5.21,9.46,9.46,0,0,0,1,10.23c2.27,3,5.48,3.81,9.07,3.51a8.92,8.92,0,0,0,6.5-3.39c.31-.38.35-.59-.18-.81-.95-.4-1.88-.85-2.8-1.3a.65.65,0,0,0-.86.11,6,6,0,0,1-2.61,1.3c-2.9.69-5.58-.64-6.43-3.21-.19-.58-.23-.76.07-.81l.33,0H70.39a.78.78,0,0,0,.22,0h0a.42.42,0,0,0,.14-.06Zm-5.26-3.47c-1.38,0-2.76,0-4.15,0s-2.91,0-4.37,0c-.49,0-.58-.14-.36-.56A5.32,5.32,0,0,1,66,19.59C66.34,20.18,66.14,20.31,65.54,20.29Z" 
fill="#2c394c"/>
        </g>
    </g>
</svg>